<?xml version="1.0" standalone="no"?>
<!DOCTYPE svg PUBLIC "-//W3C//DTD SVG 20010904//EN"
 "http://www.w3.org/TR/2001/REC-SVG-20010904/DTD/svg10.dtd">
<svg version="1.0" xmlns="http://www.w3.org/2000/svg"
 width="740.000000pt" height="740.000000pt" viewBox="0 0 740.000000 740.000000"
 preserveAspectRatio="xMidYMid meet">
<metadata>
Created by potrace 1.15, written by Peter Selinger 2001-2017
</metadata>
<g transform="translate(0.000000,740.000000) scale(0.100000,-0.100000)"
fill="#000000" stroke="none">
<path d="M3715 7300 c-3 -5 -17 -10 -31 -10 -13 0 -24 -4 -24 -10 0 -5 -9 -10
-20 -10 -11 0 -29 -4 -40 -10 -11 -5 -29 -14 -40 -20 -11 -5 -28 -10 -38 -10
-10 0 -22 -3 -25 -7 -11 -11 -111 -45 -129 -45 -10 1 -18 -3 -18 -9 0 -5 -14
-9 -31 -9 -17 0 -28 -4 -24 -10 4 -6 -7 -10 -25 -10 -18 0 -29 -4 -25 -10 4
-6 -7 -10 -24 -10 -17 0 -31 -4 -31 -10 0 -5 -11 -10 -25 -10 -14 0 -25 -4
-25 -10 0 -5 -14 -10 -31 -10 -17 0 -28 -4 -24 -10 4 -6 -7 -10 -25 -10 -18 0
-29 -4 -25 -10 4 -6 -7 -10 -25 -10 -18 0 -29 -4 -25 -10 4 -6 -7 -10 -24 -10
-17 0 -31 -4 -31 -10 0 -5 -11 -10 -25 -10 -14 0 -25 -4 -25 -10 0 -5 -11 -10
-25 -10 -14 0 -25 -4 -25 -10 0 -5 -11 -10 -25 -10 -14 0 -25 -4 -25 -10 0 -5
-13 -10 -30 -10 -16 0 -30 -4 -30 -10 0 -5 -11 -10 -25 -10 -14 0 -25 -4 -25
-10 0 -5 -11 -10 -25 -10 -14 0 -25 -4 -25 -10 0 -5 -11 -10 -25 -10 -14 0
-25 -4 -25 -10 0 -5 -9 -10 -20 -10 -20 0 -29 -4 -77 -28 -13 -7 -31 -12 -41
-12 -10 0 -22 -3 -25 -7 -11 -11 -111 -45 -129 -45 -10 1 -18 -3 -18 -9 0 -5
-14 -9 -31 -9 -17 0 -28 -4 -24 -10 4 -6 -7 -10 -25 -10 -18 0 -29 -4 -25 -10
4 -6 -7 -10 -24 -10 -17 0 -31 -4 -31 -10 0 -5 -11 -10 -25 -10 -14 0 -25 -4
-25 -10 0 -5 -14 -10 -31 -10 -17 0 -28 -4 -24 -10 4 -6 -7 -10 -25 -10 -18 0
-29 -4 -25 -10 4 -6 -7 -10 -25 -10 -18 0 -29 -4 -25 -10 4 -6 -7 -10 -24 -10
-17 0 -31 -4 -31 -10 0 -5 -11 -10 -25 -10 -14 0 -25 -4 -25 -10 0 -5 -11 -10
-25 -10 -14 0 -25 -4 -25 -10 0 -5 -11 -10 -25 -10 -14 0 -25 -4 -25 -10 0 -5
-13 -10 -30 -10 -16 0 -30 -4 -30 -10 0 -5 -11 -10 -25 -10 -14 0 -25 -4 -25
-10 0 -5 -11 -10 -25 -10 -14 0 -25 -4 -25 -10 0 -5 -11 -10 -25 -10 -14 0
-25 -4 -25 -10 0 -5 -9 -10 -20 -10 -11 0 -30 -5 -43 -12 -47 -24 -57 -28 -72
-28 -8 0 -23 -4 -33 -9 -52 -27 -111 -46 -130 -43 -6 2 -12 -2 -12 -8 0 -5
-14 -10 -31 -10 -17 0 -28 -4 -24 -10 4 -6 -7 -10 -25 -10 -18 0 -29 -4 -25
-10 4 -6 -7 -10 -24 -10 -17 0 -31 -4 -31 -10 0 -5 -11 -10 -25 -10 -14 0 -25
-4 -25 -10 0 -5 -14 -10 -31 -10 -17 0 -28 -4 -24 -10 4 -6 -7 -10 -25 -10
-18 0 -29 -4 -25 -10 4 -6 -7 -10 -25 -10 -18 0 -29 -4 -25 -10 4 -6 -7 -10
-24 -10 -17 0 -31 -4 -31 -10 0 -5 -11 -10 -25 -10 -14 0 -25 -4 -25 -10 0 -5
-11 -10 -25 -10 -14 0 -25 -4 -25 -10 0 -5 -11 -10 -25 -10 -14 0 -25 -4 -25
-10 0 -5 -13 -10 -30 -10 -16 0 -30 -4 -30 -10 0 -5 -11 -10 -25 -10 -14 0
-25 -4 -25 -10 0 -5 -11 -10 -25 -10 -14 0 -25 -4 -25 -10 0 -5 -11 -10 -25
-10 -14 0 -25 -4 -25 -10 0 -5 -9 -10 -20 -10 -11 0 -28 -4 -38 -9 -9 -5 -43
-21 -75 -36 -79 -37 -167 -127 -167 -171 0 -14 -4 -22 -10 -19 -7 4 -10 -670
-10 -2015 0 -1345 3 -2019 10 -2015 6 4 10 -5 10 -19 0 -16 6 -26 15 -26 8 0
15 -6 15 -13 0 -18 24 -67 33 -67 4 0 7 -6 7 -12 1 -19 47 -68 65 -68 8 0 15
-4 15 -10 0 -5 7 -10 15 -10 8 0 15 -4 15 -10 0 -5 12 -10 26 -10 14 0 23 -4
19 -10 -4 -6 7 -10 25 -10 18 0 29 -4 25 -10 -4 -6 7 -10 25 -10 18 0 29 -4
25 -10 -4 -6 7 -10 24 -10 17 0 31 -5 31 -11 0 -5 8 -9 17 -8 19 2 45 -6 75
-22 10 -5 27 -9 38 -9 11 0 20 -4 20 -10 0 -5 9 -10 20 -10 11 0 28 -4 38 -9
9 -5 31 -14 47 -21 17 -7 38 -16 47 -21 10 -5 27 -9 38 -9 11 0 20 -4 20 -10
0 -5 11 -10 25 -10 14 0 25 -4 25 -10 0 -5 11 -10 24 -10 14 0 28 -5 31 -10 3
-6 15 -10 26 -10 10 0 19 -4 19 -10 0 -5 14 -10 30 -10 17 0 30 -4 30 -10 0
-5 11 -10 25 -10 14 0 25 -4 25 -10 0 -5 11 -10 25 -10 14 0 25 -4 25 -10 0
-5 11 -10 25 -10 14 0 25 -4 25 -10 0 -5 14 -10 31 -10 17 0 28 -4 24 -10 -4
-6 7 -10 25 -10 18 0 29 -4 25 -10 -4 -6 7 -10 24 -10 17 0 31 -4 31 -10 0 -5
11 -10 25 -10 14 0 25 -4 25 -10 0 -5 14 -10 31 -10 17 0 28 -4 24 -10 -4 -6
7 -10 25 -10 18 0 29 -4 25 -10 -4 -6 7 -10 24 -10 17 0 31 -5 31 -11 0 -5 8
-9 17 -8 19 2 45 -6 75 -22 10 -5 27 -9 38 -9 11 0 20 -4 20 -10 0 -5 9 -10
20 -10 11 0 28 -4 38 -9 9 -5 31 -14 47 -21 17 -7 38 -16 47 -21 10 -5 27 -9
38 -9 11 0 20 -4 20 -10 0 -5 11 -10 25 -10 14 0 25 -4 25 -10 0 -5 11 -10 24
-10 14 0 28 -4 31 -10 3 -5 15 -10 26 -10 10 0 19 -4 19 -10 0 -5 14 -10 30
-10 17 0 30 -4 30 -10 0 -5 11 -10 25 -10 14 0 25 -4 25 -10 0 -5 11 -10 25
-10 14 0 25 -4 25 -10 0 -5 11 -10 25 -10 14 0 25 -4 25 -10 0 -5 14 -10 31
-10 17 0 28 -4 24 -10 -4 -6 7 -10 25 -10 18 0 29 -4 25 -10 -4 -6 7 -10 24
-10 17 0 31 -4 31 -10 0 -5 11 -10 25 -10 14 0 25 -4 25 -10 0 -5 16 -10 36
-10 21 0 33 -4 29 -10 -4 -6 28 -10 89 -10 57 0 96 4 96 10 0 6 11 10 25 10
14 0 25 5 25 10 0 6 9 10 20 10 11 0 20 5 20 11 0 6 9 9 20 6 11 -3 18 -1 14
4 -6 10 39 59 55 59 5 0 13 9 16 20 3 11 13 20 21 20 8 0 14 7 14 15 0 8 5 15
10 15 6 0 10 12 10 26 0 14 4 23 10 19 6 -4 10 25 10 80 0 55 4 84 10 80 6 -4
10 5 10 20 0 15 -4 24 -10 20 -7 -4 -10 648 -10 1949 0 1297 -3 1956 -10 1956
-5 0 -10 12 -10 27 0 14 -3 23 -7 20 -7 -8 -39 34 -35 46 1 4 -3 7 -8 7 -6 0
-16 5 -23 10 -57 48 -74 60 -89 60 -9 0 -20 5 -23 10 -3 6 -52 10 -110 10 -58
0 -107 -4 -110 -10 -3 -5 -13 -10 -21 -10 -14 0 -87 -43 -111 -67 -7 -6 -13
-17 -13 -23 0 -6 -4 -8 -10 -5 -5 3 -10 -3 -10 -15 0 -12 -4 -18 -10 -15 -6 4
-10 -5 -10 -19 0 -14 -4 -26 -10 -26 -7 0 -10 -587 -10 -1740 0 -1540 -2
-1740 -15 -1740 -8 0 -15 5 -15 10 0 6 -9 10 -20 10 -11 0 -29 4 -40 10 -11 5
-29 15 -40 20 -11 6 -29 10 -40 10 -11 0 -20 5 -20 10 0 6 -11 10 -25 10 -14
0 -25 5 -25 10 0 6 -11 10 -25 10 -14 0 -25 5 -25 10 0 6 -11 10 -25 10 -14 0
-25 5 -25 10 0 6 -14 10 -31 10 -17 0 -28 4 -24 10 4 6 -7 10 -24 10 -17 0
-31 5 -31 10 0 6 -11 10 -25 10 -14 0 -25 5 -25 10 0 6 -11 10 -25 10 -14 0
-25 5 -25 10 0 6 -14 10 -31 10 -17 0 -28 4 -24 10 4 6 -7 10 -25 10 -18 0
-29 4 -25 10 4 6 -7 10 -25 10 -18 0 -29 4 -25 10 4 6 -7 10 -24 10 -17 0 -31
5 -31 10 0 6 -9 10 -19 10 -26 0 -177 52 -233 81 -10 5 -27 9 -38 9 -11 0 -20
5 -20 10 0 6 -11 10 -25 10 -14 0 -25 5 -25 10 0 6 -9 10 -20 10 -20 0 -29 4
-77 28 -13 7 -32 12 -43 12 -11 0 -20 5 -20 10 0 6 -11 10 -25 10 -14 0 -25 5
-25 10 0 6 -11 10 -25 10 -14 0 -25 5 -25 10 0 6 -11 10 -25 10 -14 0 -25 5
-25 10 0 6 -14 10 -31 10 -16 0 -28 4 -24 9 3 5 -9 11 -27 13 l-33 3 -3 1668
c-2 1662 -2 1667 18 1667 11 0 20 5 20 10 0 6 11 10 24 10 14 0 28 5 31 10 3
6 15 10 26 10 10 0 19 5 19 10 0 6 9 10 20 10 11 0 28 4 38 9 55 28 154 61
182 61 11 0 20 5 20 10 0 6 14 10 31 10 17 0 28 4 24 10 -4 6 7 10 25 10 18 0
29 4 25 10 -4 6 7 10 24 10 17 0 31 5 31 10 0 6 11 10 25 10 14 0 25 5 25 10
0 6 11 10 25 10 14 0 25 5 25 10 0 6 11 10 25 10 14 0 25 5 25 10 0 6 14 10
31 10 17 0 28 4 24 10 -4 6 7 10 25 10 18 0 29 4 25 10 -4 6 7 10 24 10 17 0
31 5 31 10 0 6 11 10 25 10 14 0 25 5 25 10 0 6 11 10 25 10 14 0 25 5 25 10
0 6 11 10 25 10 14 0 25 5 25 10 0 6 14 10 30 10 17 0 30 5 30 10 0 6 11 10
25 10 14 0 25 5 25 10 0 6 11 10 24 10 14 0 28 5 31 10 3 6 15 10 26 10 10 0
19 5 19 10 0 6 9 10 20 10 11 0 28 4 38 9 55 28 154 61 182 61 11 0 20 5 20
10 0 6 14 10 31 10 17 0 28 4 24 10 -4 6 7 10 25 10 18 0 29 4 25 10 -4 6 7
10 24 10 17 0 31 5 31 10 0 6 11 10 25 10 14 0 25 5 25 10 0 6 11 10 25 10 14
0 25 5 25 10 0 6 11 10 25 10 14 0 25 5 25 10 0 6 14 10 31 10 17 0 28 4 24
10 -4 6 7 10 25 10 18 0 29 4 25 10 -4 6 7 10 24 10 17 0 31 5 31 10 0 6 11
10 25 10 14 0 25 5 25 10 0 6 11 10 25 10 14 0 25 5 25 10 0 6 11 10 25 10 14
0 25 5 25 10 0 6 14 10 30 10 17 0 30 5 30 10 0 6 11 10 25 10 14 0 25 5 25
10 0 6 11 10 24 10 14 0 28 5 31 10 3 6 15 10 26 10 10 0 19 5 19 10 0 6 9 10
20 10 11 0 28 4 38 9 23 12 60 27 97 39 17 6 39 13 50 18 11 4 28 6 38 5 9 -1
17 3 17 8 0 6 11 11 25 11 14 0 25 5 25 10 0 6 14 10 31 10 17 0 28 4 24 10
-4 6 7 10 24 10 17 0 31 5 31 10 0 6 11 10 25 10 14 0 25 5 25 10 0 6 11 10
25 10 14 0 25 5 25 10 0 6 11 10 25 10 14 0 25 5 25 10 0 6 14 10 31 10 17 0
28 4 24 10 -3 6 3 10 14 10 12 0 21 -4 21 -10 0 -5 9 -10 20 -10 11 0 20 -4
20 -10 0 -5 11 -10 25 -10 14 0 25 -4 25 -10 0 -5 12 -10 26 -10 14 0 23 -4
19 -10 -4 -6 7 -10 25 -10 18 0 29 -4 25 -10 -4 -6 5 -10 19 -10 14 0 26 -4
26 -10 0 -5 12 -10 26 -10 14 0 23 -4 19 -10 -4 -6 7 -10 24 -10 17 0 31 -4
31 -10 0 -5 9 -10 21 -10 12 0 35 -6 52 -14 18 -7 53 -23 79 -35 26 -11 55
-21 63 -21 8 0 15 -4 15 -10 0 -5 11 -10 25 -10 14 0 25 -4 25 -10 0 -5 9 -10
20 -10 11 0 20 -4 20 -10 0 -5 11 -10 25 -10 14 0 25 -4 25 -10 0 -5 11 -10
25 -10 14 0 25 -4 25 -10 0 -5 11 -10 25 -10 14 0 25 -4 25 -10 0 -5 9 -10 20
-10 11 0 20 -4 20 -10 0 -5 11 -10 25 -10 14 0 25 -4 25 -10 0 -5 11 -10 25
-10 14 0 25 -4 25 -10 0 -5 12 -10 26 -10 14 0 23 -4 19 -10 -4 -6 5 -10 19
-10 14 0 26 -4 26 -10 0 -5 11 -10 25 -10 14 0 25 -4 25 -10 0 -5 11 -10 25
-10 14 0 25 -4 25 -10 0 -5 12 -10 26 -10 14 0 23 -4 19 -10 -4 -6 5 -10 19
-10 14 0 26 -4 26 -10 0 -5 12 -10 26 -10 14 0 23 -4 19 -10 -4 -6 7 -10 24
-10 17 0 31 -4 31 -9 0 -5 15 -12 33 -15 19 -4 52 -15 75 -26 23 -11 48 -20
56 -20 8 0 18 -4 21 -10 3 -5 15 -10 26 -10 10 0 19 -4 19 -10 0 -5 7 -10 15
-10 8 0 24 -4 35 -10 11 -5 29 -14 40 -20 11 -5 27 -10 35 -10 8 0 15 -4 15
-10 0 -5 11 -10 25 -10 14 0 25 -4 25 -10 0 -5 9 -10 20 -10 11 0 20 -4 20
-10 0 -5 11 -10 25 -10 14 0 25 -4 25 -10 0 -5 11 -10 25 -10 14 0 25 -4 25
-10 0 -5 11 -10 25 -10 14 0 25 -4 25 -10 0 -5 9 -10 20 -10 11 0 20 -4 20
-10 0 -5 11 -10 25 -10 14 0 25 -4 25 -10 0 -5 11 -10 25 -10 14 0 25 -4 25
-10 0 -5 12 -10 26 -10 14 0 23 -4 19 -10 -4 -6 5 -10 19 -10 14 0 26 -4 26
-10 0 -5 12 -10 26 -10 14 0 23 -4 19 -10 -4 -6 7 -10 24 -10 17 0 31 -4 31
-10 0 -5 11 -10 25 -10 14 0 25 -5 25 -10 0 -6 6 -10 13 -9 6 2 30 -5 52 -15
22 -9 57 -23 78 -29 20 -7 37 -15 37 -19 0 -5 7 -8 15 -8 8 0 23 -4 33 -9 9
-5 31 -14 47 -21 17 -7 38 -16 47 -21 10 -5 25 -9 33 -9 8 0 15 -4 15 -9 0 -5
12 -11 28 -13 l27 -3 3 -1832 2 -1833 -26 0 c-14 0 -23 -4 -19 -10 4 -6 -5
-10 -19 -10 -14 0 -26 -4 -26 -10 0 -5 -12 -10 -26 -10 -14 0 -23 -4 -19 -10
4 -6 -5 -10 -20 -10 -15 0 -24 -4 -20 -10 4 -6 -5 -10 -19 -10 -14 0 -26 -4
-26 -10 0 -5 -9 -10 -20 -10 -11 0 -20 -4 -20 -10 0 -5 -11 -10 -25 -10 -14 0
-25 -4 -25 -10 0 -5 -9 -10 -20 -10 -11 0 -20 -4 -20 -10 0 -5 -9 -10 -20 -10
-11 0 -20 -4 -20 -10 0 -5 -9 -10 -20 -10 -11 0 -20 -4 -20 -10 0 -5 -11 -10
-25 -10 -14 0 -25 -4 -25 -10 0 -5 -9 -10 -20 -10 -11 0 -20 -4 -20 -10 0 -5
-9 -10 -20 -10 -11 0 -20 -4 -20 -10 0 -5 -9 -10 -19 -10 -11 0 -23 -4 -26
-10 -3 -5 -15 -10 -26 -10 -10 0 -19 -4 -19 -10 0 -5 -7 -10 -15 -10 -8 0 -38
-11 -67 -25 -28 -14 -60 -25 -70 -25 -10 0 -18 -4 -18 -10 0 -5 -12 -10 -26
-10 -14 0 -23 -4 -19 -10 4 -6 -5 -10 -20 -10 -15 0 -24 -4 -20 -10 4 -6 -5
-10 -19 -10 -14 0 -26 -4 -26 -10 0 -5 -12 -10 -26 -10 -14 0 -23 -4 -19 -10
4 -6 -5 -10 -20 -10 -15 0 -24 -4 -20 -10 4 -6 -5 -10 -19 -10 -14 0 -26 -4
-26 -10 0 -5 -9 -10 -20 -10 -11 0 -20 -4 -20 -10 0 -5 -12 -10 -26 -10 -14 0
-23 -4 -19 -10 4 -6 -5 -10 -19 -10 -14 0 -26 -4 -26 -10 0 -5 -9 -10 -20 -10
-11 0 -20 -4 -20 -10 0 -5 -9 -10 -20 -10 -11 0 -20 -4 -20 -10 0 -5 -9 -10
-19 -10 -11 0 -23 -4 -26 -10 -3 -5 -15 -10 -26 -10 -10 0 -19 -4 -19 -10 0
-5 -9 -10 -20 -10 -11 0 -20 -4 -20 -10 0 -5 -9 -10 -19 -10 -11 0 -23 -4 -26
-10 -3 -5 -15 -10 -26 -10 -10 0 -19 -4 -19 -10 0 -5 -6 -10 -13 -10 -7 0 -37
-12 -67 -26 -29 -14 -61 -26 -71 -27 -11 -1 -19 -5 -19 -9 0 -4 -9 -8 -20 -8
-11 0 -20 -4 -20 -10 0 -5 -12 -10 -26 -10 -14 0 -23 -4 -19 -10 4 -6 -5 -10
-19 -10 -14 0 -26 -4 -26 -10 0 -5 -12 -10 -26 -10 -14 0 -23 -4 -19 -10 4 -6
-5 -10 -20 -10 -15 0 -24 -4 -20 -10 4 -6 -5 -10 -19 -10 -14 0 -26 -4 -26
-10 0 -5 -9 -10 -20 -10 -11 0 -20 -4 -20 -10 0 -5 -9 -10 -20 -10 -11 0 -20
-4 -20 -10 0 -5 -7 -10 -15 -10 -8 0 -15 5 -15 10 0 6 -11 10 -25 10 -14 0
-25 5 -25 10 0 6 -11 10 -25 10 -14 0 -25 5 -25 10 0 6 -11 10 -25 10 -14 0
-25 5 -25 10 0 6 -11 10 -25 10 -14 0 -25 5 -25 10 0 6 -14 10 -31 10 -17 0
-28 4 -24 10 4 6 -7 10 -25 10 -18 0 -29 4 -25 10 4 6 -7 10 -24 10 -17 0 -31
5 -31 10 0 6 -11 10 -25 10 -14 0 -25 5 -25 10 0 6 -6 10 -12 9 -20 -4 -73 11
-117 32 -22 10 -45 19 -51 19 -5 0 -19 4 -30 10 -11 5 -29 14 -40 20 -11 5
-29 10 -39 10 -11 0 -23 5 -26 10 -3 6 -52 10 -111 10 -63 0 -104 -4 -104 -10
0 -5 -11 -10 -25 -10 -14 0 -25 -4 -25 -10 0 -5 -6 -10 -13 -10 -16 0 -107
-83 -107 -97 0 -5 -6 -15 -12 -22 -7 -6 -13 -17 -13 -24 -1 -7 -6 -11 -13 -10
-7 2 -12 -8 -12 -22 0 -14 -4 -25 -10 -25 -5 0 -10 -14 -10 -31 0 -17 -4 -28
-10 -24 -6 4 -10 -33 -10 -105 0 -72 4 -109 10 -105 6 3 10 -4 10 -15 0 -25
110 -140 134 -140 9 0 16 -4 16 -10 0 -5 9 -10 20 -10 11 0 20 -4 20 -10 0 -5
11 -10 25 -10 14 0 25 -4 25 -10 0 -5 11 -10 25 -10 14 0 25 -4 25 -10 0 -5
11 -10 25 -10 14 0 25 -4 25 -10 0 -5 14 -10 31 -10 17 0 28 -4 24 -10 -4 -6
7 -10 25 -10 18 0 29 -4 25 -10 -4 -6 7 -10 25 -10 18 0 29 -4 25 -10 -4 -6 7
-10 24 -10 17 0 31 -4 31 -10 0 -5 11 -10 25 -10 14 0 25 -4 25 -10 0 -5 14
-10 31 -10 17 0 28 -4 24 -10 -4 -6 7 -10 24 -10 17 0 31 -4 31 -9 0 -5 18
-11 40 -15 23 -3 50 -11 60 -16 11 -6 29 -14 40 -20 11 -6 29 -10 40 -10 11 0
20 -4 20 -10 0 -5 9 -10 20 -10 11 0 29 -4 40 -10 11 -5 29 -14 40 -20 11 -5
29 -10 40 -10 11 0 20 -4 20 -10 0 -5 18 -10 39 -10 22 0 43 -5 46 -10 8 -13
112 -13 120 0 3 6 22 10 41 10 19 0 34 5 34 10 0 6 11 10 25 10 14 0 25 5 25
10 0 6 7 10 15 10 8 0 30 9 50 20 20 11 42 20 50 20 8 0 15 5 15 10 0 6 6 10
13 10 13 0 59 19 99 41 10 5 27 9 38 9 11 0 20 5 20 10 0 6 9 10 20 10 11 0
20 5 20 10 0 6 12 10 26 10 14 0 23 4 19 10 -4 6 5 10 19 10 14 0 26 5 26 10
0 6 12 10 26 10 14 0 23 4 19 10 -4 6 5 10 20 10 15 0 24 4 20 10 -4 6 5 10
19 10 14 0 26 5 26 10 0 6 9 10 20 10 11 0 20 5 20 10 0 6 11 10 25 10 14 0
25 5 25 10 0 6 9 10 20 10 11 0 20 5 20 10 0 6 9 10 20 10 11 0 20 5 20 10 0
6 9 10 19 10 11 0 23 4 26 10 3 5 15 10 26 10 10 0 19 5 19 10 0 6 9 10 20 10
11 0 20 5 20 10 0 6 7 10 15 10 8 0 30 9 50 20 20 11 42 20 50 20 8 0 15 5 15
10 0 6 6 10 13 10 8 0 35 11 62 24 26 14 67 30 91 37 24 8 44 17 44 21 0 4 12
8 26 8 14 0 23 4 19 10 -4 6 5 10 19 10 14 0 26 5 26 10 0 6 12 10 26 10 14 0
23 4 19 10 -4 6 5 10 20 10 15 0 24 4 20 10 -4 6 5 10 19 10 14 0 26 5 26 10
0 6 12 10 26 10 14 0 23 4 19 10 -4 6 5 10 20 10 15 0 24 4 20 10 -4 6 5 10
19 10 14 0 26 5 26 10 0 6 9 10 20 10 11 0 20 5 20 10 0 6 9 10 19 10 11 0 23
4 26 10 3 5 15 10 26 10 10 0 19 5 19 10 0 6 9 10 20 10 11 0 20 5 20 10 0 6
9 10 20 10 11 0 20 5 20 10 0 6 9 10 19 10 11 0 23 5 26 10 3 6 15 10 26 10
10 0 19 5 19 10 0 6 9 10 20 10 11 0 20 5 20 10 0 6 7 10 15 10 8 0 30 9 50
20 19 11 35 17 35 15 0 -3 18 4 40 15 21 11 49 20 60 20 12 0 18 5 15 10 -4 6
5 10 19 10 14 0 26 5 26 10 0 6 12 10 26 10 14 0 23 4 19 10 -4 6 5 10 20 10
15 0 24 4 20 10 -4 6 5 10 19 10 14 0 26 5 26 10 0 6 12 10 26 10 14 0 23 4
19 10 -4 6 5 10 20 10 15 0 24 4 20 10 -4 6 5 10 20 10 15 0 24 4 20 10 -3 6
3 10 14 10 12 0 21 5 21 10 0 6 7 10 15 10 8 0 15 5 15 10 0 6 5 10 10 10 14
0 59 51 60 68 0 6 5 12 10 12 6 0 10 9 10 20 0 11 7 23 15 26 11 5 15 22 15
70 0 36 4 64 10 64 7 0 10 689 10 2046 0 1361 -3 2043 -10 2039 -6 -4 -10 30
-10 94 0 60 -4 101 -10 101 -5 0 -12 11 -16 25 -3 14 -10 25 -15 25 -5 0 -9 5
-9 10 0 31 -153 140 -196 140 -8 0 -14 5 -14 10 0 6 -7 10 -15 10 -8 0 -23 4
-33 9 -9 5 -30 14 -47 21 -16 7 -38 16 -47 21 -10 5 -25 9 -33 9 -8 0 -15 5
-15 10 0 6 -9 10 -19 10 -11 0 -23 5 -26 10 -3 6 -15 10 -26 10 -10 0 -19 5
-19 10 0 6 -11 10 -25 10 -14 0 -25 5 -25 10 0 6 -11 10 -25 10 -14 0 -25 5
-25 10 0 6 -12 10 -26 10 -14 0 -23 4 -19 10 4 6 -5 10 -19 10 -14 0 -26 5
-26 10 0 6 -11 10 -25 10 -14 0 -25 5 -25 10 0 6 -11 10 -25 10 -14 0 -25 5
-25 10 0 6 -9 10 -20 10 -11 0 -20 5 -20 10 0 6 -11 10 -25 10 -14 0 -25 5
-25 10 0 6 -11 10 -25 10 -14 0 -25 5 -25 10 0 6 -12 10 -26 10 -15 0 -23 4
-18 11 4 6 -1 9 -13 7 -11 -2 -28 4 -38 12 -10 8 -20 13 -22 11 -5 -4 -81 23
-143 51 -25 11 -56 25 -70 30 -14 6 -33 14 -42 19 -10 5 -25 9 -33 9 -8 0 -15
5 -15 10 0 6 -11 10 -25 10 -14 0 -25 5 -25 10 0 6 -9 10 -19 10 -11 0 -23 5
-26 10 -3 6 -15 10 -26 10 -10 0 -19 5 -19 10 0 6 -11 10 -25 10 -14 0 -25 5
-25 10 0 6 -11 10 -25 10 -14 0 -25 5 -25 10 0 6 -12 10 -26 10 -14 0 -23 4
-19 10 4 6 -5 10 -19 10 -14 0 -26 5 -26 10 0 6 -11 10 -25 10 -14 0 -25 5
-25 10 0 6 -12 10 -26 10 -14 0 -23 4 -19 10 4 6 -5 10 -19 10 -14 0 -26 5
-26 10 0 6 -11 10 -25 10 -14 0 -25 5 -25 10 0 6 -11 10 -25 10 -14 0 -25 5
-25 10 0 6 -12 10 -26 10 -14 0 -23 4 -19 10 3 6 -4 10 -18 10 -13 0 -27 3
-31 8 -4 4 -11 7 -14 8 -36 6 -73 18 -78 25 -3 5 -14 9 -25 9 -10 0 -19 5 -19
10 0 6 -7 10 -15 10 -8 0 -23 4 -33 9 -9 5 -30 14 -47 21 -16 7 -38 16 -47 21
-10 5 -25 9 -33 9 -8 0 -15 5 -15 10 0 6 -9 10 -19 10 -11 0 -23 5 -26 10 -3
6 -17 10 -31 10 -13 0 -24 5 -24 10 0 6 -9 10 -20 10 -11 0 -20 5 -20 10 0 6
-11 10 -25 10 -14 0 -25 5 -25 10 0 6 -12 10 -26 10 -14 0 -23 4 -19 10 4 6
-7 10 -25 10 -18 0 -29 4 -25 10 4 6 -5 10 -19 10 -14 0 -26 5 -26 10 0 6 -11
10 -25 10 -14 0 -25 5 -25 10 0 6 -12 10 -26 10 -14 0 -23 4 -19 10 4 6 -5 10
-19 10 -14 0 -26 5 -26 10 0 6 -11 10 -25 10 -14 0 -25 5 -25 10 0 6 -12 10
-26 10 -14 0 -23 4 -19 10 4 6 -7 10 -25 10 -18 0 -29 4 -25 10 4 6 -5 10 -19
10 -14 0 -26 5 -26 12 0 6 -3 9 -6 5 -7 -7 -53 7 -114 35 -25 11 -56 25 -70
30 -14 6 -33 14 -42 19 -10 5 -25 9 -33 9 -8 0 -15 5 -15 10 0 6 -11 10 -24
10 -14 0 -28 5 -31 10 -3 6 -52 10 -110 10 -58 0 -107 -4 -110 -10z"/>
<path d="M4530 5190 c-8 -5 -40 -10 -70 -10 -31 0 -60 -4 -65 -9 -6 -5 -28
-11 -50 -14 -22 -3 -58 -10 -80 -17 -22 -6 -48 -11 -57 -11 -10 0 -20 -4 -23
-10 -4 -5 -17 -9 -31 -9 -14 0 -22 -4 -19 -10 4 -6 -5 -10 -19 -10 -14 0 -26
-4 -26 -10 0 -5 -9 -10 -20 -10 -11 0 -20 -4 -20 -10 0 -5 -7 -10 -15 -10 -8
0 -15 -4 -15 -10 0 -5 -7 -10 -15 -10 -8 0 -15 -4 -15 -10 0 -5 -7 -10 -15
-10 -8 0 -15 -5 -15 -11 0 -6 -9 -9 -20 -6 -11 3 -18 1 -15 -3 3 -5 -24 -39
-60 -76 -36 -37 -65 -71 -65 -76 0 -5 -4 -6 -10 -3 -5 3 -10 -1 -10 -9 0 -9
-4 -16 -10 -16 -5 0 -10 -9 -10 -20 0 -11 -4 -20 -10 -20 -5 0 -10 -9 -10 -21
0 -11 -4 -17 -10 -14 -6 4 -10 -5 -10 -19 0 -14 -4 -26 -10 -26 -5 0 -10 -11
-10 -25 0 -14 -4 -25 -10 -25 -5 0 -10 -18 -10 -40 0 -22 -4 -40 -10 -40 -6 0
-10 -53 -10 -139 0 -83 4 -142 10 -146 6 -3 10 -22 10 -41 0 -19 5 -34 10 -34
6 0 10 -14 10 -31 0 -17 4 -28 10 -24 6 4 10 -5 10 -19 0 -14 5 -26 10 -26 6
0 10 -9 10 -20 0 -11 5 -20 10 -20 6 0 10 -5 10 -10 0 -19 140 -167 195 -205
15 -11 34 -26 41 -32 7 -7 20 -13 28 -13 9 0 16 -4 16 -10 0 -5 7 -10 15 -10
8 0 15 -4 15 -10 0 -5 9 -10 20 -10 11 0 20 -4 20 -10 0 -5 9 -10 20 -10 11 0
20 -4 20 -10 0 -5 12 -10 26 -10 14 0 23 -4 19 -10 -4 -6 7 -10 24 -10 17 0
31 -4 31 -10 0 -5 11 -10 25 -10 14 0 25 -4 25 -10 0 -5 14 -10 30 -10 17 0
30 -4 30 -10 0 -5 16 -10 36 -10 21 0 33 -4 29 -10 -4 -6 10 -10 35 -10 25 0
39 -4 35 -10 -4 -6 12 -10 40 -10 28 0 44 -4 40 -10 -4 -6 12 -10 40 -10 28 0
44 -4 40 -10 -4 -6 12 -10 40 -10 28 0 44 -4 40 -10 -4 -6 12 -10 39 -10 25 0
46 -4 46 -9 0 -5 21 -12 48 -15 26 -3 58 -8 72 -11 14 -3 42 -8 63 -11 20 -3
40 -10 43 -15 3 -5 14 -9 25 -9 10 0 27 -4 37 -9 9 -5 40 -19 67 -32 28 -13
56 -30 63 -37 8 -6 22 -17 33 -22 10 -6 19 -20 19 -31 0 -11 4 -18 9 -14 5 3
12 -4 16 -15 3 -11 11 -20 16 -20 5 0 9 -41 9 -90 0 -71 -3 -92 -15 -96 -8 -4
-15 -16 -15 -28 -1 -24 -24 -59 -33 -49 -4 3 -7 1 -7 -6 0 -17 -67 -81 -85
-81 -9 0 -13 -4 -10 -10 3 -5 -1 -10 -9 -10 -9 0 -16 -4 -16 -10 0 -5 -11 -10
-25 -10 -14 0 -25 -4 -25 -10 0 -5 -11 -10 -25 -10 -14 0 -25 -4 -25 -10 0 -5
-22 -10 -50 -10 -27 0 -50 -4 -50 -10 0 -6 -60 -10 -160 -10 -100 0 -160 4
-160 10 0 6 -20 10 -45 10 -25 0 -45 5 -45 10 0 6 -11 10 -25 10 -14 0 -25 5
-25 10 0 6 -9 10 -20 10 -11 0 -20 5 -20 10 0 6 -9 10 -21 10 -11 0 -17 5 -14
10 3 6 0 10 -9 10 -16 0 -130 100 -122 107 3 3 -6 17 -20 31 -13 15 -24 32
-24 39 0 7 -4 13 -10 13 -5 0 -10 11 -10 25 0 14 -4 25 -10 25 -5 0 -10 11
-10 25 0 14 -4 25 -10 25 -5 0 -10 18 -10 40 0 22 -4 40 -10 40 -5 0 -10 14
-10 30 0 28 -3 30 -36 30 -21 0 -33 -4 -29 -10 4 -6 -35 -10 -110 -10 -75 0
-114 -4 -110 -10 4 -6 -33 -10 -104 -10 -73 0 -111 -4 -111 -11 0 -7 -21 -10
-57 -7 l-58 3 3 -58 c2 -31 8 -55 13 -51 5 3 9 -20 9 -51 0 -34 4 -54 10 -50
5 3 12 -7 15 -22 4 -15 10 -36 16 -45 5 -10 9 -27 9 -38 0 -11 5 -20 10 -20 6
0 10 -11 10 -25 0 -14 5 -25 10 -25 6 0 10 -11 10 -25 0 -14 5 -25 10 -25 6 0
10 -7 10 -15 0 -8 5 -15 10 -15 6 0 10 -9 10 -20 0 -11 5 -20 10 -20 6 0 10
-7 10 -15 0 -8 5 -15 10 -15 6 0 10 -7 10 -15 0 -8 5 -15 10 -15 6 0 10 -10
10 -22 0 -12 3 -19 6 -16 9 9 126 -111 119 -122 -4 -6 1 -7 11 -3 14 5 16 3
11 -11 -4 -10 -3 -15 3 -11 12 7 70 -16 70 -27 0 -5 7 -8 15 -8 8 0 15 -4 15
-10 0 -5 7 -10 15 -10 8 0 15 -4 15 -10 0 -5 7 -10 15 -10 8 0 15 -4 15 -10 0
-5 9 -10 20 -10 11 0 20 -4 20 -10 0 -5 14 -10 31 -10 17 0 28 -4 24 -10 -4
-6 7 -10 25 -10 18 0 29 -4 25 -10 -4 -6 7 -10 24 -10 17 0 31 -4 31 -10 0 -5
21 -10 46 -10 27 0 43 -4 39 -10 -4 -6 15 -10 50 -10 35 0 54 -4 50 -10 -4 -6
31 -10 97 -10 70 0 98 -3 88 -10 -10 -6 44 -10 163 -10 116 0 176 3 172 10 -4
6 27 10 85 10 58 0 89 4 85 10 -4 6 13 10 44 10 28 0 51 5 51 10 0 6 18 10 41
10 24 0 38 4 34 10 -4 6 8 10 30 10 22 0 34 4 30 10 -4 6 8 10 30 10 22 0 34
4 30 10 -4 6 5 10 19 10 14 0 26 5 26 10 0 6 9 10 20 10 11 0 20 5 20 10 0 6
7 10 15 10 9 0 25 9 37 20 12 11 28 20 35 20 7 0 13 5 13 11 0 6 9 9 20 6 11
-3 18 -1 15 4 -3 5 33 46 80 92 47 45 85 88 85 95 0 7 5 10 10 7 6 -3 10 3 10
14 0 12 5 21 10 21 6 0 10 7 10 15 0 8 5 15 10 15 6 0 10 9 10 20 0 11 5 20
10 20 6 0 10 11 10 25 0 14 5 25 10 25 6 0 10 11 10 25 0 14 5 25 10 25 6 0
10 15 10 33 0 18 4 37 9 43 8 8 22 124 21 179 0 68 -13 191 -21 199 -5 6 -9
25 -9 43 0 18 -4 33 -10 33 -5 0 -10 14 -10 30 0 17 -4 30 -10 30 -5 0 -10 9
-10 20 0 11 -4 20 -10 20 -5 0 -10 9 -10 20 0 11 -5 20 -11 20 -7 0 -9 10 -7
25 4 20 3 23 -8 14 -11 -9 -14 -8 -14 5 0 9 -4 16 -10 16 -5 0 -10 6 -11 13 0
6 -39 46 -85 87 -47 41 -91 81 -99 88 -8 7 -15 10 -15 6 0 -4 -8 -1 -17 7 -18
14 -113 62 -163 81 -14 6 -33 14 -42 19 -10 5 -27 9 -38 9 -11 0 -20 5 -20 10
0 6 -11 10 -24 10 -14 0 -28 5 -31 10 -3 6 -19 10 -36 10 -16 0 -29 5 -29 10
0 6 -16 10 -35 10 -19 0 -35 5 -35 10 0 6 -16 10 -35 10 -19 0 -35 5 -35 10 0
6 -18 10 -40 10 -22 0 -40 5 -40 10 0 6 -20 10 -45 10 -25 0 -45 5 -45 10 0 6
-18 10 -40 10 -22 0 -40 5 -40 10 0 6 -18 10 -40 10 -22 0 -40 5 -40 10 0 6
-18 10 -40 10 -22 0 -40 5 -40 10 0 6 -16 10 -35 10 -19 0 -35 5 -35 10 0 6
-13 10 -30 10 -16 0 -30 5 -30 10 0 6 -14 10 -31 10 -17 0 -28 4 -24 10 4 6
-7 10 -24 10 -17 0 -31 5 -31 10 0 6 -8 10 -19 10 -10 0 -30 9 -43 20 -14 10
-28 16 -32 13 -3 -3 -6 1 -6 11 0 9 -4 14 -10 11 -5 -3 -10 1 -10 9 0 9 -4 16
-10 16 -5 0 -10 7 -10 15 0 8 -4 15 -10 15 -6 0 -10 33 -10 80 0 47 4 80 10
80 6 0 10 7 10 15 0 9 10 26 23 38 26 25 102 67 123 67 8 0 14 5 14 10 0 6 11
10 24 10 14 0 27 4 30 9 19 30 429 31 461 0 5 -5 17 -9 27 -9 39 0 178 -98
178 -126 0 -8 5 -14 10 -14 6 0 10 -7 10 -15 0 -8 5 -15 10 -15 6 0 10 -9 10
-20 0 -11 5 -20 10 -20 6 0 10 -13 10 -30 0 -16 4 -30 9 -30 6 0 11 -19 13
-42 l3 -43 200 1 c216 2 425 14 425 27 0 4 0 46 0 93 0 54 -4 83 -10 79 -6 -4
-10 8 -10 29 0 20 -4 36 -10 36 -5 0 -10 14 -10 30 0 17 -4 30 -10 30 -5 0
-10 13 -10 29 0 18 -6 31 -16 35 -9 4 -14 9 -11 12 3 4 -5 18 -19 32 -13 15
-24 32 -24 39 0 7 -4 13 -10 13 -5 0 -10 6 -10 13 0 7 -9 23 -21 35 -11 12
-17 27 -14 32 4 6 -1 7 -11 3 -13 -5 -16 -3 -11 10 4 12 2 14 -10 10 -12 -5
-15 -2 -10 10 4 12 2 14 -10 10 -12 -5 -15 -2 -10 10 4 12 2 14 -10 10 -12 -5
-15 -2 -10 10 4 11 2 14 -9 10 -8 -3 -23 4 -33 16 -10 11 -23 21 -30 21 -6 0
-11 5 -11 10 0 6 -7 10 -15 10 -8 0 -15 5 -15 10 0 6 -9 10 -20 10 -11 0 -20
5 -20 10 0 6 -7 10 -15 10 -8 0 -15 5 -15 10 0 6 -11 10 -25 10 -14 0 -25 5
-25 10 0 6 -11 10 -25 10 -14 0 -25 5 -25 11 0 6 -6 9 -12 7 -7 -3 -33 2 -58
9 -55 17 -122 31 -215 45 -98 14 -496 21 -515 8z"/>
</g>
</svg>
