<?xml version="1.0" standalone="no"?>
<!DOCTYPE svg PUBLIC "-//W3C//DTD SVG 20010904//EN"
 "http://www.w3.org/TR/2001/REC-SVG-20010904/DTD/svg10.dtd">
<svg version="1.0" xmlns="http://www.w3.org/2000/svg"
 width="586.000000pt" height="586.000000pt" viewBox="0 0 586.000000 586.000000"
 preserveAspectRatio="xMidYMid meet">
<metadata>
Created by potrace 1.15, written by Peter Selinger 2001-2017
</metadata>
<g transform="translate(0.000000,586.000000) scale(0.100000,-0.100000)"
fill="#000000" stroke="none">
<path d="M2800 5781 c0 -6 -20 -13 -45 -17 -25 -3 -43 -10 -40 -14 3 -5 -13
-11 -35 -15 -22 -4 -40 -11 -40 -16 0 -5 -9 -9 -20 -9 -11 0 -20 -4 -20 -9 0
-5 -18 -12 -40 -16 -22 -4 -40 -10 -40 -15 0 -5 -18 -11 -40 -15 -22 -4 -40
-11 -40 -16 0 -5 -9 -9 -20 -9 -11 0 -20 -4 -20 -9 0 -5 -14 -12 -31 -16 -17
-4 -42 -13 -57 -21 -15 -8 -35 -14 -44 -14 -10 0 -18 -4 -18 -10 0 -5 -9 -10
-19 -10 -11 0 -22 -4 -26 -10 -3 -5 -12 -7 -20 -3 -8 3 -15 0 -15 -6 0 -6 -9
-11 -20 -11 -11 0 -20 -4 -20 -9 0 -5 -18 -12 -40 -16 -22 -4 -40 -11 -40 -15
0 -5 -17 -12 -37 -16 -21 -4 -40 -10 -43 -13 -8 -11 -77 -41 -94 -41 -9 0 -16
-4 -16 -9 0 -5 -18 -12 -40 -16 -22 -4 -40 -11 -40 -16 0 -5 -9 -9 -19 -9 -11
0 -23 -5 -26 -10 -4 -6 -10 -8 -15 -5 -5 3 -11 1 -15 -5 -3 -5 -15 -10 -26
-10 -10 0 -19 -4 -19 -9 0 -5 -18 -12 -40 -16 -22 -4 -40 -11 -40 -16 0 -5
-18 -12 -40 -15 -22 -4 -37 -10 -34 -15 3 -5 -1 -9 -9 -9 -8 0 -28 -7 -43 -15
-16 -8 -37 -15 -46 -15 -10 0 -18 -4 -18 -9 0 -5 -18 -12 -40 -16 -22 -4 -40
-10 -40 -13 0 -7 -53 -28 -98 -39 -12 -3 -22 -9 -22 -13 0 -5 -18 -11 -40 -15
-22 -4 -40 -11 -40 -15 0 -5 -16 -12 -35 -16 -19 -3 -35 -10 -35 -15 0 -5 -6
-9 -14 -9 -7 0 -27 -7 -42 -15 -16 -8 -37 -15 -46 -15 -10 0 -18 -4 -18 -9 0
-5 -18 -12 -40 -16 -22 -4 -40 -10 -40 -13 0 -7 -53 -28 -97 -39 -13 -3 -23
-9 -23 -14 0 -5 -18 -12 -40 -15 -22 -4 -40 -10 -40 -15 0 -5 -18 -12 -40 -15
-22 -4 -37 -10 -34 -15 3 -5 -1 -9 -9 -9 -8 0 -28 -7 -43 -15 -16 -8 -37 -15
-46 -15 -10 0 -18 -4 -18 -9 0 -5 -18 -12 -40 -16 -22 -4 -40 -11 -40 -16 0
-5 -6 -9 -14 -9 -7 0 -27 -7 -42 -15 -16 -8 -37 -15 -46 -15 -10 0 -18 -4 -18
-9 0 -5 -14 -13 -32 -16 -17 -4 -43 -18 -57 -31 -14 -13 -31 -22 -38 -20 -7 3
-10 -1 -6 -10 3 -7 0 -14 -6 -14 -6 0 -11 -6 -11 -14 0 -8 -8 -22 -17 -32 -17
-17 -18 -110 -18 -1682 0 -1300 3 -1666 12 -1669 7 -3 15 -20 19 -39 3 -18 10
-31 15 -28 5 3 9 -1 9 -8 1 -20 33 -54 58 -62 12 -4 22 -12 22 -17 0 -5 7 -9
15 -9 16 0 87 -31 95 -42 3 -3 22 -9 43 -13 20 -4 37 -11 37 -15 0 -5 18 -11
40 -15 22 -4 40 -11 40 -16 0 -5 9 -9 20 -9 11 0 20 -4 20 -9 0 -5 18 -12 40
-16 22 -4 38 -10 35 -15 -2 -4 13 -10 35 -14 22 -3 40 -11 40 -16 0 -6 10 -10
23 -10 13 0 32 -7 43 -15 10 -8 27 -15 37 -15 9 0 17 -4 17 -9 0 -5 18 -12 40
-16 22 -4 40 -11 40 -16 0 -5 8 -9 18 -9 9 0 30 -7 46 -15 15 -8 35 -15 43
-15 8 0 12 -4 9 -9 -3 -5 14 -12 39 -16 25 -3 43 -10 40 -14 -2 -5 13 -11 35
-15 22 -3 40 -11 40 -16 0 -6 11 -10 24 -10 14 0 28 -5 31 -10 4 -6 11 -8 16
-5 5 4 9 1 9 -4 0 -6 9 -11 20 -11 11 0 20 -4 20 -9 0 -5 18 -12 40 -16 22 -4
40 -11 40 -16 0 -5 8 -9 18 -9 9 0 30 -7 46 -15 15 -8 35 -15 42 -15 8 0 14
-4 14 -9 0 -5 18 -12 40 -16 22 -4 38 -10 35 -15 -3 -5 13 -11 35 -15 22 -4
40 -11 40 -16 0 -5 6 -9 14 -9 7 0 27 -7 42 -15 16 -8 37 -15 47 -15 9 0 17
-4 17 -9 0 -5 18 -12 40 -16 22 -4 40 -11 40 -16 0 -5 8 -9 18 -9 9 0 30 -7
46 -15 15 -8 35 -15 43 -15 8 0 12 -4 9 -9 -3 -5 12 -11 34 -15 22 -3 40 -10
40 -15 0 -5 18 -12 40 -16 22 -4 40 -11 40 -16 0 -5 9 -9 19 -9 11 0 23 -5 26
-10 4 -6 10 -8 15 -5 5 3 11 1 15 -5 3 -5 15 -10 26 -10 10 0 19 -4 19 -9 0
-5 18 -12 40 -16 22 -4 40 -11 40 -16 0 -5 8 -9 18 -9 9 0 30 -7 46 -15 15 -8
35 -15 43 -15 8 0 12 -4 9 -9 -3 -5 12 -11 34 -15 22 -3 40 -10 40 -15 0 -5
18 -11 40 -15 22 -3 40 -11 40 -16 0 -6 9 -10 20 -10 11 0 20 -5 20 -11 0 -6
7 -9 15 -6 8 4 17 2 20 -3 4 -6 15 -10 26 -10 10 0 19 -4 19 -9 0 -5 18 -12
40 -16 22 -4 40 -11 40 -16 0 -5 38 -9 85 -9 47 0 85 4 85 9 0 5 14 12 30 16
17 4 30 11 30 17 0 6 7 7 16 4 9 -3 12 -2 9 4 -4 6 12 27 34 47 23 20 41 42
41 49 0 7 6 14 13 17 19 6 18 4054 -2 4066 -8 5 -11 16 -8 26 4 9 3 14 -2 10
-5 -3 -29 13 -52 35 -24 22 -51 40 -61 40 -10 0 -18 5 -18 10 0 6 -35 10 -86
10 -54 0 -83 -4 -79 -10 3 -5 -2 -10 -12 -10 -10 0 -35 -14 -56 -31 -20 -17
-40 -28 -44 -26 -5 3 -9 -7 -10 -21 0 -15 -6 -28 -12 -30 -6 -2 -11 -13 -11
-23 0 -11 -4 -17 -10 -14 -7 4 -10 -580 -10 -1745 l0 -1750 -27 6 c-16 4 -29
11 -31 16 -2 4 -12 8 -23 8 -10 0 -19 4 -19 9 0 5 -18 12 -40 16 -22 4 -38 10
-35 15 2 4 -13 10 -35 14 -22 3 -40 10 -40 15 0 5 -18 11 -40 15 -22 3 -40 11
-40 16 0 6 -9 10 -20 10 -11 0 -20 4 -20 9 0 5 -18 12 -40 16 -22 4 -40 11
-40 16 0 5 -8 9 -17 9 -10 0 -31 7 -47 15 -15 8 -35 15 -42 15 -8 0 -14 4 -14
9 0 5 -18 12 -40 16 -22 4 -38 10 -35 15 2 4 -13 10 -35 14 -22 3 -40 11 -40
16 0 6 -8 10 -17 10 -10 0 -31 7 -47 15 -15 8 -35 15 -42 15 -8 0 -14 4 -14 9
0 5 -18 12 -40 16 -22 4 -40 11 -40 16 0 5 -8 9 -17 9 -10 0 -31 7 -47 15 -15
8 -35 15 -42 15 -8 0 -14 4 -14 9 0 5 -18 12 -40 16 -22 4 -38 10 -35 15 2 4
-13 10 -35 14 -22 3 -40 11 -40 16 0 6 -8 10 -17 10 -10 0 -31 7 -47 15 -15 8
-35 15 -42 15 -8 0 -14 4 -14 9 0 5 -18 12 -40 16 -22 4 -40 11 -40 16 0 5 -8
9 -17 9 -10 0 -31 7 -47 15 -15 8 -35 15 -43 15 -8 0 -12 4 -9 9 3 5 -12 11
-34 15 -22 3 -40 10 -40 15 0 5 -18 11 -40 15 -22 3 -40 11 -40 16 0 6 -8 10
-17 10 -10 0 -31 7 -47 15 -15 8 -35 15 -42 15 -8 0 -14 4 -14 9 0 5 -18 12
-40 16 -22 4 -40 11 -40 16 0 5 -7 9 -16 9 -9 0 -30 6 -47 14 -18 8 -40 16
-49 20 -17 5 -18 79 -18 1356 l0 1350 40 6 c22 4 37 10 34 15 -3 5 4 9 15 9
12 0 21 4 21 9 0 5 18 12 40 16 22 4 40 10 40 15 0 5 18 11 40 15 22 4 40 11
40 16 0 5 6 9 14 9 7 0 27 7 42 15 16 8 37 15 47 15 9 0 17 4 17 10 0 5 18 13
40 16 22 4 37 10 35 14 -3 5 13 11 35 15 22 4 40 11 40 16 0 5 6 9 14 9 7 0
27 7 42 15 16 8 37 15 47 15 9 0 17 4 17 9 0 5 18 12 40 16 22 4 40 11 40 16
0 5 9 9 20 9 11 0 20 4 20 9 0 5 14 12 31 16 17 4 42 13 57 21 15 8 35 14 45
14 9 0 17 4 17 9 0 5 18 12 40 16 22 4 40 11 40 16 0 5 6 9 14 9 7 0 27 7 42
15 16 8 37 15 47 15 9 0 17 4 17 9 0 5 18 12 40 16 22 4 40 11 40 16 0 5 9 9
19 9 11 0 21 5 23 12 3 7 23 12 45 12 28 1 39 5 36 13 -3 8 10 15 36 19 22 4
38 10 36 14 -3 5 13 11 35 15 22 4 40 11 40 16 0 5 9 9 20 9 11 0 20 4 20 9 0
5 18 12 40 16 22 4 40 10 40 15 0 5 18 11 40 15 22 4 38 11 34 16 -3 5 4 9 15
9 11 0 22 4 26 9 3 5 19 12 36 16 17 4 42 13 57 21 15 8 35 14 45 14 9 0 17 4
17 9 0 5 18 12 40 16 22 4 40 11 40 16 0 5 9 9 20 9 11 0 20 4 20 9 0 5 18 12
40 16 22 4 40 11 40 15 0 5 17 12 38 16 20 4 39 10 42 13 3 3 22 14 43 24 37
17 87 15 87 -4 0 -5 9 -9 21 -9 11 0 18 -4 15 -9 -3 -5 12 -11 34 -15 22 -3
40 -10 40 -15 0 -5 16 -12 35 -15 19 -4 35 -11 35 -16 0 -6 9 -10 20 -10 11 0
20 -4 20 -10 0 -5 16 -12 35 -16 19 -3 35 -10 35 -15 0 -4 16 -11 35 -15 19
-3 35 -10 35 -15 0 -5 7 -9 16 -9 16 0 74 -29 84 -42 3 -3 22 -9 43 -13 20 -4
37 -11 37 -16 0 -5 5 -9 11 -9 13 0 82 -31 89 -41 3 -3 20 -10 38 -14 17 -3
32 -10 32 -15 0 -4 16 -11 35 -14 19 -4 35 -11 35 -16 0 -6 7 -10 16 -10 17 0
86 -30 94 -41 3 -3 20 -10 38 -14 17 -3 32 -10 32 -15 0 -4 16 -11 35 -14 19
-4 35 -11 35 -16 0 -6 9 -10 20 -10 11 0 20 -4 20 -9 0 -5 16 -12 35 -15 19
-4 35 -11 35 -16 0 -5 16 -12 35 -16 19 -3 35 -10 35 -14 0 -4 16 -11 35 -14
19 -4 35 -11 35 -16 0 -6 9 -10 21 -10 11 0 18 -4 15 -9 -4 -5 12 -12 34 -16
22 -4 40 -11 40 -16 0 -5 5 -9 11 -9 13 0 82 -31 89 -41 3 -3 20 -10 38 -14
17 -3 32 -10 32 -15 0 -4 16 -11 35 -14 19 -4 35 -11 35 -16 0 -6 7 -10 16
-10 17 0 86 -30 94 -41 3 -3 20 -10 38 -14 17 -3 32 -10 32 -15 0 -4 16 -11
35 -14 19 -4 35 -11 35 -16 0 -6 9 -10 20 -10 11 0 20 -4 20 -9 0 -5 16 -12
35 -15 19 -4 35 -11 35 -15 0 -5 16 -12 35 -15 19 -4 35 -11 35 -15 0 -5 16
-12 35 -15 19 -4 35 -11 35 -16 0 -6 9 -10 20 -10 11 0 20 -4 20 -9 0 -5 15
-13 33 -16 17 -4 34 -11 37 -14 3 -4 21 -12 40 -17 l35 -10 2 -1224 2 -1225
-68 -32 c-38 -18 -74 -33 -80 -33 -6 0 -11 -4 -11 -10 0 -5 -16 -12 -35 -16
-19 -3 -32 -10 -29 -15 3 -5 -1 -9 -9 -9 -8 0 -39 -14 -70 -30 -31 -17 -63
-30 -71 -30 -8 0 -16 -4 -18 -8 -4 -10 -130 -72 -146 -72 -7 0 -12 -4 -12 -9
0 -5 -13 -12 -30 -16 -16 -4 -30 -11 -30 -16 0 -5 -9 -9 -20 -9 -11 0 -20 -4
-20 -9 0 -5 -13 -12 -30 -16 -16 -4 -30 -11 -30 -15 0 -5 -16 -12 -35 -16 -19
-3 -32 -10 -29 -15 3 -5 -1 -9 -9 -9 -8 0 -39 -13 -70 -30 -31 -16 -63 -30
-72 -30 -8 0 -15 -4 -15 -9 0 -8 -37 -24 -52 -22 -5 1 -8 -4 -8 -9 0 -6 -9
-10 -20 -10 -11 0 -20 -4 -20 -9 0 -5 -13 -12 -30 -16 -16 -4 -30 -11 -30 -15
0 -5 -16 -12 -35 -16 -19 -3 -32 -10 -29 -15 3 -5 -4 -9 -15 -9 -12 0 -21 -4
-21 -9 0 -5 -13 -12 -30 -16 -16 -4 -30 -11 -30 -15 0 -5 -16 -12 -35 -16 -19
-3 -35 -10 -35 -14 0 -4 -12 -11 -27 -15 -15 -3 -30 -10 -33 -13 -10 -13 -68
-42 -84 -42 -9 0 -16 -4 -16 -10 0 -5 -16 -12 -35 -16 -19 -3 -32 -10 -29 -15
3 -5 -4 -9 -15 -9 -12 0 -21 -4 -21 -9 0 -5 -13 -12 -30 -16 -16 -4 -30 -11
-30 -16 0 -5 -11 -11 -25 -15 -14 -3 -25 -11 -25 -16 0 -6 -7 -8 -14 -5 -10 4
-13 1 -9 -9 4 -12 -7 -18 -28 -16 -4 1 -5 -8 -2 -18 3 -11 1 -20 -5 -20 -6 0
-14 -16 -18 -35 -3 -19 -10 -38 -15 -41 -12 -7 -12 -91 0 -98 5 -3 12 -22 16
-43 4 -20 13 -46 21 -57 8 -11 14 -29 14 -39 0 -10 5 -15 10 -12 6 3 10 0 10
-9 0 -16 56 -76 72 -76 6 0 8 -7 5 -14 -4 -10 -1 -13 9 -9 8 3 22 -1 31 -8 11
-9 42 -14 92 -13 63 0 84 5 123 27 26 15 54 27 62 27 9 0 16 4 16 10 0 5 16
12 35 16 19 3 32 10 29 15 -3 5 1 9 10 9 16 0 79 31 84 42 2 4 19 10 38 14 19
3 34 10 34 14 0 7 22 16 44 18 5 0 12 4 15 9 7 11 75 43 90 43 6 0 11 4 11 9
0 5 14 12 30 16 17 4 30 10 30 13 0 8 74 42 90 42 6 0 10 4 10 10 0 5 16 12
35 16 19 3 32 10 29 15 -3 5 1 9 10 9 16 0 79 31 84 42 2 4 19 10 38 14 19 3
34 10 34 15 0 4 16 11 35 15 20 3 34 9 31 12 -7 6 59 42 79 42 8 0 15 4 15 10
0 5 16 12 35 16 20 3 32 11 28 17 -4 6 3 8 20 5 17 -3 24 -1 20 8 -3 7 8 15
26 19 17 4 31 11 31 15 0 5 16 12 35 16 19 3 35 10 35 14 0 5 14 11 30 15 17
4 30 11 30 16 0 5 7 9 15 9 8 0 15 4 15 10 0 5 16 12 35 16 19 3 35 10 35 14
0 5 14 11 30 15 17 4 30 10 30 14 0 3 23 15 50 26 28 11 50 23 50 27 0 4 16
10 35 14 19 3 35 10 35 14 0 4 12 11 27 15 15 3 30 10 33 13 10 13 68 42 84
42 9 0 16 5 16 10 0 6 6 10 14 10 7 0 29 13 47 30 19 16 39 28 46 25 7 -2 10
2 6 11 -3 7 -1 14 5 14 5 0 13 12 17 27 3 15 12 31 18 35 18 11 17 3080 0
3085 -7 3 -13 11 -13 18 0 31 -124 125 -165 125 -9 0 -14 4 -11 9 4 5 -12 12
-34 16 -22 4 -40 11 -40 16 0 5 -5 9 -11 9 -13 0 -82 31 -89 41 -3 3 -20 10
-37 14 -18 3 -33 10 -33 15 0 4 -16 11 -35 14 -19 4 -35 11 -35 16 0 6 -7 10
-15 10 -15 0 -87 31 -95 41 -3 4 -20 10 -37 14 -18 3 -33 10 -33 15 0 4 -16
11 -35 14 -19 4 -35 11 -35 16 0 6 -9 10 -20 10 -11 0 -20 4 -20 9 0 5 -16 12
-35 15 -19 4 -35 11 -35 15 0 5 -16 12 -35 15 -19 4 -35 11 -35 16 0 6 -8 10
-18 10 -10 0 -27 7 -38 15 -10 8 -27 15 -36 15 -10 0 -18 4 -18 10 0 5 -16 12
-35 16 -19 3 -35 10 -35 14 0 4 -16 11 -35 14 -19 4 -35 11 -35 16 0 6 -7 10
-15 10 -8 0 -15 4 -15 9 0 5 -18 12 -40 16 -22 4 -40 11 -40 16 0 5 -5 9 -11
9 -6 0 -40 14 -76 30 -35 17 -69 30 -74 30 -5 0 -9 4 -9 9 0 5 -16 12 -35 15
-19 4 -35 11 -35 16 0 6 -7 10 -16 10 -17 0 -86 30 -94 41 -3 3 -20 10 -37 14
-18 3 -33 10 -33 15 0 4 -16 11 -35 14 -19 4 -35 11 -35 16 0 6 -9 10 -20 10
-11 0 -20 5 -20 11 0 5 -4 8 -9 4 -5 -3 -12 -1 -16 5 -3 5 -15 10 -26 10 -10
0 -19 4 -19 9 0 5 -16 12 -35 15 -19 4 -35 11 -35 15 0 5 -16 12 -35 15 -19 4
-35 11 -35 16 0 6 -9 10 -21 10 -11 0 -18 4 -15 9 4 5 -12 12 -34 16 -22 4
-40 11 -40 15 0 5 -16 12 -35 16 -19 3 -35 10 -35 15 0 5 -8 9 -17 9 -10 0
-27 7 -37 15 -11 8 -28 15 -39 15 -10 0 -16 4 -13 9 3 5 -10 12 -29 15 -19 4
-35 11 -35 16 0 6 -7 10 -16 10 -17 0 -86 30 -94 41 -3 3 -20 10 -37 14 -18 3
-33 10 -33 15 0 4 -16 11 -35 14 -19 4 -35 11 -35 16 0 6 -9 10 -20 10 -11 0
-20 5 -20 10 0 6 -3 9 -7 8 -14 -3 -63 14 -63 22 0 4 -16 11 -35 14 -19 4 -35
11 -35 16 0 6 -38 10 -85 10 -47 0 -85 -4 -85 -9z"/>
<path d="M1405 4120 c4 -6 -11 -10 -39 -10 -25 0 -47 -4 -50 -9 -3 -4 -28 -11
-56 -15 -27 -4 -50 -11 -50 -15 0 -5 -18 -12 -40 -16 -22 -4 -38 -11 -34 -16
3 -5 0 -9 -6 -9 -7 0 -32 -14 -57 -30 -24 -17 -49 -27 -55 -24 -7 5 -8 2 -4
-5 10 -15 -23 -53 -40 -47 -7 3 -11 0 -8 -7 2 -7 -7 -24 -20 -39 -14 -14 -28
-38 -32 -52 -3 -14 -10 -26 -15 -26 -5 0 -9 -8 -9 -17 0 -10 -8 -31 -17 -48
-13 -24 -17 -57 -17 -163 0 -86 4 -136 11 -140 6 -4 14 -24 18 -45 4 -20 11
-37 15 -37 4 0 11 -12 14 -26 4 -14 21 -42 39 -62 63 -71 94 -102 103 -102 5
0 21 -11 36 -25 14 -13 38 -27 52 -31 14 -3 26 -10 26 -15 0 -5 9 -9 20 -9 11
0 20 -4 20 -9 0 -5 18 -12 40 -16 22 -4 40 -11 40 -15 0 -5 20 -12 45 -16 25
-3 45 -10 45 -14 0 -4 25 -11 55 -15 30 -3 57 -11 60 -16 4 -5 19 -9 36 -9 16
0 29 -4 29 -9 0 -4 27 -11 60 -15 33 -4 60 -11 60 -15 0 -5 20 -11 45 -14 24
-4 53 -11 62 -16 10 -5 35 -17 56 -27 20 -10 37 -22 37 -26 0 -3 9 -10 20 -13
11 -3 20 -12 20 -20 0 -7 5 -15 11 -17 15 -5 24 -95 15 -143 -5 -26 -11 -35
-21 -31 -9 3 -12 0 -9 -9 7 -17 -31 -59 -45 -51 -7 5 -8 1 -5 -9 5 -11 0 -18
-15 -22 -11 -3 -21 -9 -21 -14 0 -5 -6 -9 -14 -9 -8 0 -16 -5 -18 -10 -2 -6
-27 -13 -56 -17 -28 -3 -52 -10 -52 -14 0 -5 -43 -9 -95 -9 -57 0 -95 4 -95
10 0 6 -14 10 -31 10 -99 0 -259 154 -259 249 0 12 -4 21 -10 21 -5 0 -10 18
-10 40 l0 40 -81 0 c-44 0 -78 -4 -75 -8 3 -5 -49 -12 -115 -15 -67 -4 -125
-9 -130 -13 -12 -7 -12 -74 0 -74 4 0 12 -32 15 -70 4 -40 11 -68 17 -65 5 4
9 -5 9 -19 0 -14 4 -27 9 -31 5 -3 12 -19 16 -35 4 -17 11 -30 16 -30 5 0 11
-11 15 -25 3 -14 10 -25 15 -25 5 0 9 -6 9 -14 0 -18 144 -163 170 -171 11 -3
20 -11 20 -16 0 -5 7 -9 15 -9 8 0 15 -4 15 -9 0 -5 18 -12 40 -16 22 -4 40
-11 40 -15 0 -5 20 -12 45 -16 25 -3 48 -10 51 -15 3 -5 23 -9 45 -9 24 0 38
-4 34 -10 -4 -6 29 -10 92 -11 188 -2 328 3 331 12 2 5 19 9 37 9 19 0 36 4
39 9 4 5 29 12 56 16 28 4 50 11 50 15 0 5 16 12 35 16 19 3 35 10 35 15 0 5
5 9 11 9 6 0 18 7 26 16 9 8 24 13 35 11 10 -3 16 -1 13 4 -3 4 24 38 60 75
35 37 67 76 71 86 3 10 10 18 15 18 5 0 9 8 9 18 0 10 7 27 15 38 8 10 15 27
15 36 0 9 6 18 13 21 9 3 12 50 12 192 0 142 -3 189 -12 193 -7 2 -13 15 -13
28 0 13 -4 24 -9 24 -5 0 -12 14 -16 30 -4 17 -10 30 -15 30 -5 0 -11 8 -14
18 -3 9 -24 36 -47 59 -22 23 -38 47 -34 53 3 5 0 7 -8 4 -8 -3 -20 2 -27 11
-7 8 -19 15 -26 15 -8 0 -14 4 -14 10 0 5 -11 12 -25 16 -14 3 -25 10 -25 14
0 5 -13 11 -30 15 -16 4 -32 11 -35 16 -4 5 -15 9 -26 9 -10 0 -19 4 -19 9 0
6 -20 13 -45 17 -25 3 -45 10 -45 14 0 5 -22 11 -50 15 -27 4 -52 11 -56 16
-3 5 -18 9 -35 9 -16 0 -29 4 -29 9 0 5 -29 13 -65 16 -36 4 -63 11 -60 15 3
4 -20 11 -50 15 -30 3 -55 10 -55 15 0 4 -20 11 -45 14 -25 4 -45 11 -45 17 0
5 -9 9 -21 9 -11 0 -17 5 -14 10 3 6 -1 10 -10 10 -9 0 -13 4 -10 10 3 5 0 7
-8 4 -20 -7 -57 43 -57 78 0 17 -4 27 -10 23 -5 -3 -10 -1 -10 4 0 6 5 11 10
11 6 0 10 14 10 30 0 17 8 38 19 48 36 32 50 42 60 42 5 0 11 5 13 10 2 6 27
13 56 17 28 3 52 10 52 14 0 5 45 9 100 9 55 0 100 -4 100 -9 0 -5 23 -11 50
-15 28 -4 50 -11 50 -16 0 -6 5 -10 11 -10 20 0 71 -60 65 -76 -4 -9 -2 -12 5
-8 14 8 29 -14 29 -43 0 -13 5 -23 10 -23 6 0 10 -12 10 -27 1 -34 21 -63 44
-63 10 0 14 4 11 10 -4 6 61 11 177 12 l183 3 -3 80 c-2 44 -7 82 -12 85 -4 3
-11 26 -15 53 -4 26 -11 47 -15 47 -4 0 -15 17 -26 37 -10 21 -29 49 -42 63
-12 14 -20 30 -18 36 2 6 -3 11 -12 10 -10 -1 -16 6 -16 16 1 10 -2 15 -7 12
-5 -3 -16 1 -24 8 -27 25 -40 34 -72 53 -18 11 -33 22 -33 26 0 4 -18 10 -40
14 -22 4 -40 11 -40 15 0 5 -21 12 -47 15 -27 3 -56 10 -65 16 -10 5 -34 9
-53 9 -22 0 -34 4 -30 10 4 7 -53 10 -165 10 -112 0 -169 -3 -165 -10z"/>
<path d="M3325 4078 c-3 -7 -4 -443 -3 -968 l3 -955 208 -3 207 -2 0 395 0
395 115 0 c70 0 115 -4 115 -10 0 -5 11 -10 23 -10 41 0 146 -87 132 -109 -3
-7 0 -8 9 -5 9 3 16 2 16 -3 0 -9 12 -25 51 -71 6 -7 8 -19 5 -27 -3 -9 0 -12
10 -8 7 3 14 1 14 -4 0 -6 9 -20 20 -33 11 -13 20 -29 20 -37 0 -7 4 -13 9
-13 5 0 12 -8 15 -17 3 -10 17 -31 31 -47 14 -16 25 -33 25 -38 0 -5 6 -16 13
-23 24 -27 52 -69 64 -95 4 -8 11 -19 15 -25 5 -5 17 -21 28 -34 11 -13 20
-28 20 -33 0 -5 11 -20 25 -34 14 -14 25 -31 25 -39 0 -8 4 -15 9 -15 5 0 13
-10 17 -22 4 -13 12 -26 18 -30 6 -4 120 -8 254 -8 208 0 242 2 242 15 0 8 -4
15 -10 15 -5 0 -12 11 -16 25 -3 14 -9 25 -14 25 -4 0 -15 16 -26 35 -10 19
-22 35 -26 35 -5 0 -8 6 -8 14 0 8 -6 21 -14 28 -7 8 -17 24 -20 36 -4 12 -12
22 -17 22 -5 0 -9 7 -9 15 0 8 -4 15 -10 15 -5 0 -12 11 -16 25 -3 14 -11 25
-16 25 -6 0 -8 9 -5 21 3 12 3 18 0 15 -8 -8 -53 46 -47 56 3 4 1 8 -4 8 -5 0
-17 16 -28 35 -10 19 -22 35 -25 35 -4 0 -10 11 -13 25 -4 14 -11 25 -16 25
-6 0 -10 6 -10 14 0 8 -7 16 -15 20 -8 3 -15 10 -15 16 0 6 -7 18 -16 27 -8 9
-13 22 -10 30 3 8 1 11 -4 8 -12 -7 -134 110 -127 122 3 4 -6 9 -20 10 -14 0
-28 5 -32 10 -3 5 -17 17 -31 26 l-24 17 32 0 c17 0 32 4 32 9 0 5 23 12 50
16 28 4 47 11 44 16 -3 5 2 9 11 9 39 0 205 120 205 148 0 6 11 19 24 29 13
11 27 33 31 51 3 18 10 32 15 32 5 0 12 20 16 45 3 25 10 48 15 51 12 7 12
261 0 268 -5 3 -12 26 -15 51 -4 25 -11 45 -16 45 -5 0 -12 14 -15 32 -4 17
-13 37 -19 43 -6 6 -22 26 -36 44 -49 63 -88 97 -145 126 -22 11 -42 23 -45
27 -3 4 -30 10 -60 14 -30 4 -58 12 -62 18 -5 8 -179 12 -588 14 -478 3 -581
1 -585 -10z m978 -343 c26 -4 47 -11 47 -16 0 -5 10 -9 23 -9 27 0 87 -46 87
-67 0 -8 4 -12 9 -8 14 8 24 -74 19 -157 -2 -44 -9 -73 -16 -76 -7 -2 -12 -10
-12 -17 0 -16 -56 -65 -75 -65 -7 0 -15 -6 -17 -12 -4 -10 -79 -14 -316 -18
l-312 -5 0 233 0 233 258 -5 c141 -2 278 -8 305 -11z"/>
</g>
</svg>
